<svg width="66" height="53" viewBox="0 0 66 53" fill="none" xmlns="http://www.w3.org/2000/svg">
<g clip-path="url(#clip0_115_800)">
<path d="M61.5 44H4.5C2.01472 44 0 46.0147 0 48.5C0 50.9853 2.01472 53 4.5 53H61.5C63.9853 53 66 50.9853 66 48.5C66 46.0147 63.9853 44 61.5 44Z" fill="#67B32E"/>
<path d="M61.5 22H4.5C2.01472 22 0 24.0147 0 26.5C0 28.9853 2.01472 31 4.5 31H61.5C63.9853 31 66 28.9853 66 26.5C66 24.0147 63.9853 22 61.5 22Z" fill="#67B32E"/>
<path d="M61.5 0H4.5C2.01472 0 0 2.01472 0 4.5C0 6.98528 2.01472 9 4.5 9H61.5C63.9853 9 66 6.98528 66 4.5C66 2.01472 63.9853 0 61.5 0Z" fill="#67B32E"/>
</g>
<defs>
<clipPath id="clip0_115_800">
<rect width="66" height="53" fill="white"/>
</clipPath>
</defs>
</svg>
