<svg width="46" height="46" viewBox="0 0 46 46" fill="none" xmlns="http://www.w3.org/2000/svg">
<path d="M42.6982 12.6393C41.9489 8.39865 38.0973 4.54704 33.8576 3.79865C31.2845 3.36829 27.7824 2.96939 23 2.9649C18.2176 2.95951 14.7155 3.37099 12.1424 3.79865C7.90176 4.54615 4.05016 8.39685 3.30176 12.6393C2.87141 15.2124 2.4725 18.7145 2.46801 23.4969C2.46262 28.2793 2.8741 31.7814 3.30176 34.3545C4.05106 38.5951 7.90266 42.4467 12.1424 43.1951C14.7155 43.6255 18.2176 44.0244 23 44.0289C27.7824 44.0343 31.2845 43.6228 33.8576 43.1951C38.0982 42.4458 41.9498 38.5942 42.6982 34.3545C43.1286 31.7814 43.5275 28.2793 43.532 23.4969C43.5374 18.7145 43.1214 15.2097 42.6982 12.6393Z" fill="#C1E1F3"/>
<path d="M23 2.96216C18.2176 2.96755 14.7155 3.36825 12.1424 3.79591C7.90177 4.5461 4.05017 8.39681 3.30177 12.6392C2.87142 15.2124 2.47251 18.7145 2.46802 23.4968C2.47251 27.4913 2.75282 30.5918 3.09513 33.005C5.73923 33.9753 8.53427 34.4704 11.35 34.4668C24.5597 34.4668 35.27 23.7574 35.27 10.5468C35.2718 8.29618 34.9555 6.05728 34.332 3.89563C34.1739 3.8588 34.0149 3.82556 33.8549 3.79681C31.2854 3.36735 27.7833 2.96665 23.0009 2.96216H23Z" fill="#CFECF9"/>
<path d="M43.0684 15.2295C42.9534 14.2753 42.8267 13.4146 42.6982 12.6393C41.9489 8.39865 38.0973 4.54704 33.8576 3.79865C31.2845 3.36829 27.7824 2.96939 23 2.9649C18.2176 2.95951 14.7155 3.37099 12.1424 3.79865C7.90173 4.54615 4.05013 8.39685 3.30174 12.6393C3.17236 13.4146 3.04568 14.2744 2.93158 15.2277C2.9756 15.2259 10.9456 14.8279 23.009 14.8279C35.0723 14.8279 43.0288 15.2277 43.0684 15.2295Z" fill="#EDC700"/>
<path d="M34.8656 14.9599C35.1325 13.5296 35.2735 12.0553 35.2735 10.5477C35.2735 8.23962 34.9456 6.0097 34.3356 3.89837C34.1765 3.86154 34.0175 3.8274 33.8576 3.79865C31.2845 3.36829 27.7824 2.96939 23 2.9649C18.2176 2.95951 14.7155 3.37099 12.1424 3.79865C7.90173 4.54615 4.05013 8.39685 3.30174 12.6393C3.17236 13.4146 3.04568 14.2744 2.93158 15.2277C2.9756 15.2259 10.9456 14.8279 23.009 14.8279C27.6386 14.8279 31.6618 14.8872 34.8656 14.959V14.9599Z" fill="#FFD600"/>
<path d="M16.2644 2.16793C16.2644 0.970615 15.2938 0 14.0965 0C12.8991 0 11.9285 0.970615 11.9285 2.16793V5.57031C11.9285 6.76763 12.8991 7.73824 14.0965 7.73824C15.2938 7.73824 16.2644 6.76763 16.2644 5.57031V2.16793Z" fill="#34344F"/>
<path d="M34.0714 2.16793C34.0714 0.970615 33.1008 0 31.9035 0C30.7062 0 29.7355 0.970615 29.7355 2.16793V5.57031C29.7355 6.76763 30.7062 7.73824 31.9035 7.73824C33.1008 7.73824 34.0714 6.76763 34.0714 5.57031V2.16793Z" fill="#34344F"/>
<path d="M25.1679 2.16793C25.1679 0.970615 24.1973 0 23 0C21.8026 0 20.832 0.970615 20.832 2.16793V5.57031C20.832 6.76763 21.8026 7.73824 23 7.73824C24.1973 7.73824 25.1679 6.76763 25.1679 5.57031V2.16793Z" fill="#34344F"/>
<path d="M16.3246 33.6178C16.2276 34.1676 15.728 34.6671 15.1782 34.7642C14.844 34.8199 14.3903 34.872 13.7694 34.872C13.1495 34.872 12.6949 34.819 12.3616 34.7642C11.8117 34.6671 11.3122 34.1676 11.2152 33.6178C11.1595 33.2835 11.1074 32.8298 11.1074 32.209C11.1074 31.5891 11.1604 31.1345 11.2152 30.8003C11.3122 30.2504 11.8117 29.7509 12.3616 29.6539C12.6949 29.5982 13.1495 29.546 13.7694 29.546C14.3894 29.546 14.844 29.5991 15.1782 29.6539C15.728 29.7509 16.2276 30.2504 16.3246 30.8003C16.3803 31.1345 16.4324 31.5882 16.4324 32.209C16.4324 32.8289 16.3794 33.2835 16.3246 33.6178ZM16.3246 24.9065C16.2276 25.4564 15.728 25.9559 15.1782 26.0529C14.844 26.1086 14.3903 26.1607 13.7694 26.1607C13.1495 26.1607 12.6949 26.1077 12.3616 26.0529C11.8117 25.9559 11.3122 25.4564 11.2152 24.9065C11.1595 24.5732 11.1074 24.1186 11.1074 23.4987C11.1074 22.8787 11.1604 22.4241 11.2152 22.0899C11.3122 21.5401 11.8117 21.0405 12.3616 20.9435C12.6949 20.8878 13.1495 20.8357 13.7694 20.8357C14.3894 20.8357 14.844 20.8887 15.1782 20.9435C15.728 21.0405 16.2276 21.5401 16.3246 22.0899C16.3803 22.4241 16.4324 22.8778 16.4324 23.4987C16.4324 24.1186 16.3794 24.5732 16.3246 24.9065ZM24.4078 26.0529C24.0736 26.1086 23.6199 26.1607 22.9991 26.1607C22.3792 26.1607 21.9245 26.1077 21.5903 26.0529C21.0405 25.9559 20.541 25.4564 20.4439 24.9065C20.3882 24.5732 20.3361 24.1186 20.3361 23.4987C20.3361 22.8787 20.3891 22.4241 20.4439 22.0899C20.541 21.5401 21.0405 21.0405 21.5903 20.9435C21.9236 20.8878 22.3783 20.8357 22.9991 20.8357C23.619 20.8357 24.0736 20.8887 24.4078 20.9435C24.9577 21.0405 25.4572 21.5401 25.5542 22.0899C25.6099 22.4241 25.662 22.8778 25.662 23.4987C25.662 24.1186 25.609 24.5732 25.5542 24.9065C25.4572 25.4564 24.9577 25.9559 24.4078 26.0529Z" fill="#34344F"/>
<path d="M35.5871 25.1742C29.8362 25.1742 25.1742 29.8362 25.1742 35.5871C25.1742 41.338 29.8362 46 35.5871 46C41.338 46 46 41.338 46 35.5871C46 29.8362 41.338 25.1742 35.5871 25.1742Z" fill="#FFD600"/>
<path d="M40.595 39.011C40.2195 39.5609 39.6103 39.8564 38.9913 39.8564C38.6139 39.8564 38.2321 39.7468 37.897 39.5177L34.4919 37.1899C33.9627 36.8278 33.6465 36.2286 33.6465 35.5871V30.5576C33.6465 29.4858 34.5153 28.6161 35.588 28.6161C36.6607 28.6161 37.5295 29.4849 37.5295 30.5576V34.5628L40.0892 36.313C40.9741 36.9177 41.2014 38.126 40.5959 39.011H40.595Z" fill="white"/>
</svg>
