<svg width="219" height="34" viewBox="0 0 219 34" fill="none" xmlns="http://www.w3.org/2000/svg">
<g clip-path="url(#clip0_20_5215)">
<path d="M44.1727 17.3865C44.6451 17.6109 45.4068 17.8648 46.4578 18.1423C47.7244 18.4848 48.7754 18.8332 49.6139 19.1874C50.4494 19.5417 51.1757 20.0879 51.7868 20.829C52.3979 21.57 52.705 22.5295 52.705 23.7105C52.705 24.7408 52.395 25.6738 51.772 26.5122C51.1491 27.3507 50.2959 28.0032 49.2124 28.4756C48.1288 28.9479 46.9095 29.1841 45.5573 29.1841C44.2908 29.1841 43.0685 28.942 41.8876 28.4608C40.7066 27.9766 39.6762 27.3064 38.7964 26.4473C38.4953 26.1904 38.3447 25.91 38.3447 25.6118C38.3447 25.3136 38.4835 25.0213 38.764 24.7438L39.9242 23.5835C40.1811 23.3266 40.4616 23.1967 40.7598 23.1967C41.0166 23.1967 41.2971 23.2942 41.5953 23.4861C42.109 23.9998 42.7113 24.3984 43.3992 24.6759C44.0871 24.9564 44.8045 25.0951 45.5573 25.0951C46.3102 25.0951 46.8977 24.9445 47.3937 24.6434C47.8867 24.3423 48.1347 23.9555 48.1347 23.4831C48.1347 23.0757 47.9104 22.7687 47.4587 22.5649C47.0069 22.3612 46.2452 22.1103 45.1735 21.8091C43.907 21.4667 42.8618 21.1212 42.0352 20.7788C41.2085 20.4363 40.4852 19.8931 39.8622 19.152C39.2393 18.411 38.9293 17.4308 38.9293 16.2056C38.9293 15.2195 39.2245 14.3279 39.815 13.5337C40.4055 12.7395 41.2085 12.1165 42.23 11.6678C43.2486 11.2161 44.3912 10.9917 45.6577 10.9917C46.7088 10.9917 47.745 11.1688 48.7636 11.5231C49.7822 11.8774 50.7003 12.3764 51.5152 13.02C51.8577 13.2355 52.0289 13.5042 52.0289 13.826C52.0289 14.1271 51.8783 14.4046 51.5772 14.6644L50.3874 15.8247C50.1069 16.0816 49.8294 16.2115 49.5519 16.2115C49.295 16.2115 49.0145 16.1258 48.7134 15.9546C47.8779 15.311 46.9331 14.9892 45.8821 14.9892C45.1942 14.9892 44.6214 15.128 44.1609 15.4084C43.7003 15.6889 43.47 16.0314 43.47 16.4388C43.47 16.8462 43.7062 17.1621 44.1786 17.3895L44.1727 17.3865Z" fill="white"/>
<path d="M68.0572 12.3497C69.3444 13.1026 70.36 14.1359 71.0981 15.4556C71.8362 16.7753 72.2082 18.2515 72.2082 19.8812V20.1381C72.1875 20.6311 72.0428 21.0061 71.7742 21.2659C71.5055 21.5227 71.1158 21.6526 70.5991 21.6526H59.7522C60.074 22.6387 60.6792 23.4329 61.5708 24.0352C62.4624 24.6375 63.5076 24.9475 64.7092 24.9681C65.9551 24.9681 67.1331 24.6788 68.2491 24.1001C68.5502 24.0145 68.7421 23.9702 68.8277 23.9702C69.1702 23.9702 69.4507 24.1621 69.6662 24.5489L70.3748 25.9011C70.5253 26.2022 70.5991 26.4915 70.5991 26.7691C70.5991 27.1972 70.4161 27.5219 70.0529 27.7345C69.2588 28.2069 68.3849 28.5671 67.4283 28.8121C66.4717 29.0601 65.4916 29.1811 64.4818 29.1811C62.7222 29.1811 61.1221 28.7885 59.6843 28.0061C58.2465 27.2237 57.1187 26.1491 56.3038 24.788C55.489 23.427 55.0815 21.8977 55.0815 20.2001C55.0815 18.5025 55.4565 16.9761 56.2093 15.6121C56.9592 14.2481 57.9955 13.1764 59.3152 12.394C60.6349 11.6117 62.1111 11.219 63.7408 11.219C65.3705 11.219 66.767 11.5939 68.0542 12.3468L68.0572 12.3497ZM61.249 16.3089C60.5286 16.8875 60.0297 17.6492 59.7522 18.594H67.8652C67.6291 17.6492 67.1419 16.8875 66.4009 16.3089C65.6598 15.7302 64.7741 15.4409 63.7438 15.4409C62.799 15.4409 61.9664 15.7302 61.249 16.3089Z" fill="white"/>
<path d="M90.9462 11.4788C91.4185 11.4788 91.7787 11.6028 92.0238 11.8478C92.2688 12.0958 92.3928 12.4531 92.3928 12.9255V27.5072C92.3928 27.9589 92.2688 28.3072 92.0238 28.5523C91.7758 28.8003 91.4156 28.9213 90.9462 28.9213H89.1423C88.6906 28.9213 88.3422 28.7973 88.0971 28.5523C87.8491 28.3072 87.7281 27.9559 87.7281 27.5072V26.4118C87.1258 27.3123 86.37 28.0002 85.4577 28.4726C84.5454 28.945 83.521 29.1811 82.3843 29.1811C80.8609 29.1811 79.4881 28.7885 78.2628 28.0061C77.0405 27.2237 76.0751 26.1491 75.3666 24.788C74.658 23.427 74.3037 21.8977 74.3037 20.2001C74.3037 18.5025 74.658 16.9761 75.3666 15.6121C76.0751 14.2481 77.0405 13.1764 78.2628 12.394C79.4851 11.6117 80.8579 11.219 82.3843 11.219C83.521 11.219 84.5454 11.4611 85.4577 11.9423C86.37 12.4265 87.1258 13.1174 87.7281 14.0178V12.9225C87.7281 12.4501 87.8521 12.0899 88.0971 11.8449C88.3422 11.5998 88.6935 11.4758 89.1423 11.4758H90.9462V11.4788ZM86.4379 23.6632C87.297 22.7952 87.7251 21.7058 87.7251 20.3949V20.0082C87.7251 18.7003 87.2941 17.6109 86.4379 16.7399C85.5788 15.8719 84.5159 15.435 83.2523 15.435C81.9887 15.435 80.8904 15.8867 80.0342 16.7871C79.1751 17.6876 78.747 18.8272 78.747 20.2001C78.747 21.5729 79.1751 22.7125 80.0342 23.613C80.8934 24.5135 81.9651 24.9652 83.2523 24.9652C84.5395 24.9652 85.5817 24.5312 86.4379 23.6602V23.6632Z" fill="white"/>
<path d="M101.149 17.3865C101.622 17.6109 102.383 17.8648 103.434 18.1423C104.701 18.4848 105.752 18.8332 106.59 19.1874C107.426 19.5417 108.152 20.0879 108.763 20.829C109.375 21.57 109.682 22.5295 109.682 23.7105C109.682 24.7408 109.372 25.6738 108.749 26.5122C108.126 27.3507 107.272 28.0032 106.189 28.4756C105.105 28.9479 103.886 29.1841 102.534 29.1841C101.267 29.1841 100.045 28.942 98.8641 28.4608C97.6832 27.9766 96.6528 27.3064 95.773 26.4473C95.4719 26.1904 95.3213 25.91 95.3213 25.6118C95.3213 25.3136 95.4601 25.0213 95.7405 24.7438L96.9008 23.5835C97.1577 23.3266 97.4381 23.1967 97.7363 23.1967C97.9932 23.1967 98.2736 23.2942 98.5718 23.4861C99.0855 23.9998 99.6878 24.3984 100.376 24.6759C101.064 24.9564 101.781 25.0951 102.534 25.0951C103.287 25.0951 103.874 24.9445 104.37 24.6434C104.863 24.3423 105.111 23.9555 105.111 23.4831C105.111 23.0757 104.887 22.7687 104.435 22.5649C103.984 22.3612 103.222 22.1103 102.15 21.8091C100.884 21.4667 99.8384 21.1212 99.0117 20.7788C98.1851 20.4363 97.4618 19.8931 96.8388 19.152C96.2159 18.411 95.9059 17.4308 95.9059 16.2056C95.9059 15.2195 96.2011 14.3279 96.7916 13.5337C97.382 12.7395 98.1851 12.1165 99.2066 11.6678C100.225 11.2161 101.368 10.9917 102.634 10.9917C103.685 10.9917 104.722 11.1688 105.74 11.5231C106.759 11.8774 107.677 12.3764 108.492 13.02C108.834 13.2355 109.005 13.5042 109.005 13.826C109.005 14.1271 108.855 14.4046 108.554 14.6644L107.364 15.8247C107.083 16.0816 106.806 16.2115 106.528 16.2115C106.272 16.2115 105.991 16.1258 105.69 15.9546C104.854 15.311 103.91 14.9892 102.859 14.9892C102.171 14.9892 101.598 15.128 101.137 15.4084C100.677 15.6889 100.447 16.0314 100.447 16.4388C100.447 16.8462 100.683 17.1621 101.155 17.3895L101.149 17.3865Z" fill="white"/>
<path d="M125.598 12.397C126.962 13.1793 128.034 14.254 128.816 15.615C129.599 16.979 129.991 18.5083 129.991 20.203C129.991 21.8977 129.599 23.427 128.816 24.791C128.034 26.155 126.959 27.2267 125.598 28.009C124.234 28.7914 122.717 29.1841 121.043 29.1841C119.369 29.1841 117.845 28.7914 116.472 28.009C115.1 27.2267 114.019 26.152 113.237 24.791C112.454 23.4299 112.062 21.9006 112.062 20.203C112.062 18.5054 112.454 16.979 113.237 15.615C114.019 14.251 115.1 13.1793 116.472 12.397C117.845 11.6146 119.369 11.2219 121.043 11.2219C122.717 11.2219 124.234 11.6146 125.598 12.397ZM124.116 23.4388C124.943 22.5708 125.356 21.4902 125.356 20.203C125.356 18.9158 124.943 17.8382 124.116 16.9672C123.289 16.0992 122.265 15.6623 121.043 15.6623C119.82 15.6623 118.766 16.0963 117.951 16.9672C117.137 17.8352 116.729 18.9158 116.729 20.203C116.729 21.4902 117.137 22.6003 117.951 23.4713C118.766 24.3393 119.797 24.7762 121.043 24.7762C122.265 24.7555 123.289 24.3097 124.116 23.4417V23.4388Z" fill="white"/>
<path d="M147.296 13.153C148.509 14.4402 149.114 16.191 149.114 18.3993V27.5103C149.114 27.962 148.99 28.3104 148.745 28.5555C148.497 28.8035 148.149 28.9245 147.7 28.9245H145.896C145.424 28.9245 145.064 28.8005 144.819 28.5555C144.571 28.3104 144.45 27.9591 144.45 27.5103V18.9485C144.45 17.8974 144.14 17.056 143.517 16.4213C142.894 15.7895 142.067 15.4618 141.037 15.4381C140.071 15.4381 139.259 15.7747 138.607 16.4508C137.951 17.1269 137.624 17.9594 137.624 18.9455V27.5074C137.624 27.9591 137.5 28.3075 137.255 28.5525C137.01 28.7976 136.649 28.9216 136.177 28.9216H134.373C133.921 28.9216 133.573 28.7976 133.328 28.5525C133.08 28.3075 132.959 27.9561 132.959 27.5074V12.9257C132.959 12.4533 133.083 12.0931 133.328 11.8481C133.576 11.603 133.924 11.479 134.373 11.479H136.177C136.649 11.479 137.01 11.603 137.255 11.8481C137.5 12.0961 137.624 12.4533 137.624 12.9257V13.3124C138.247 12.6482 138.961 12.1315 139.764 11.7684C140.57 11.4023 141.444 11.2222 142.389 11.2222C144.45 11.2222 146.085 11.8658 147.299 13.153H147.296Z" fill="white"/>
<path d="M164.113 5.58898C164.113 5.71888 164.081 5.87831 164.016 6.07316L163.502 7.58477C163.287 8.20772 162.956 8.45276 162.504 8.32581C162.162 8.19591 161.763 8.13391 161.314 8.13391C160.606 8.13391 160.054 8.35829 159.655 8.81C159.257 9.26171 159.059 9.89351 159.059 10.7084V11.4819H161.763C162.215 11.4819 162.563 11.6059 162.808 11.8509C163.056 12.0989 163.177 12.4562 163.177 12.9285V13.3802C163.177 13.8526 163.053 14.2128 162.808 14.4579C162.56 14.7059 162.212 14.8269 161.763 14.8269H159.059V27.5102C159.059 27.9619 158.935 28.3103 158.69 28.5554C158.442 28.8034 158.082 28.9244 157.612 28.9244H155.808C155.357 28.9244 155.008 28.8004 154.763 28.5554C154.515 28.3103 154.394 27.959 154.394 27.5102V14.8269H153.009C152.558 14.8269 152.209 14.7029 151.964 14.4579C151.716 14.2128 151.595 13.8526 151.595 13.3802V12.9285C151.595 12.4562 151.719 12.096 151.964 11.8509C152.209 11.6059 152.561 11.4819 153.009 11.4819H154.394V10.3541C154.394 8.55019 154.973 7.10353 156.133 6.00821C157.293 4.91289 158.891 4.3667 160.931 4.3667C161.766 4.3667 162.572 4.48479 163.346 4.72098C163.859 4.85089 164.119 5.14022 164.119 5.58898H164.113Z" fill="white"/>
<path d="M167.525 28.9273C167.073 28.9273 166.724 28.8033 166.479 28.5582C166.231 28.3132 166.11 27.9618 166.11 27.5131V6.71667C166.11 6.2443 166.234 5.88411 166.479 5.63906C166.727 5.39402 167.076 5.27002 167.525 5.27002H169.328C169.801 5.27002 170.161 5.39402 170.406 5.63906C170.651 5.88706 170.775 6.2443 170.775 6.71667V27.5131C170.775 27.9648 170.651 28.3132 170.406 28.5582C170.161 28.8033 169.801 28.9273 169.328 28.9273H167.525Z" fill="white"/>
<path d="M187.273 12.3972C188.637 13.1796 189.709 14.2542 190.491 15.6153C191.274 16.9793 191.667 18.5086 191.667 20.2032C191.667 21.8979 191.274 23.4272 190.491 24.7912C189.709 26.1552 188.634 27.2269 187.273 28.0093C185.909 28.7917 184.392 29.1843 182.718 29.1843C181.044 29.1843 179.52 28.7917 178.148 28.0093C176.775 27.2269 175.694 26.1522 174.912 24.7912C174.129 23.4302 173.737 21.9008 173.737 20.2032C173.737 18.5056 174.129 16.9793 174.912 15.6153C175.694 14.2513 176.775 13.1796 178.148 12.3972C179.52 11.6148 181.044 11.2222 182.718 11.2222C184.392 11.2222 185.909 11.6148 187.273 12.3972ZM185.791 23.439C186.618 22.571 187.031 21.4905 187.031 20.2032C187.031 18.916 186.618 17.8384 185.791 16.9675C184.965 16.0995 183.94 15.6625 182.718 15.6625C181.496 15.6625 180.442 16.0965 179.627 16.9675C178.812 17.8355 178.405 18.916 178.405 20.2032C178.405 21.4905 178.812 22.6006 179.627 23.4715C180.442 24.3395 181.472 24.7764 182.718 24.7764C183.94 24.7558 184.965 24.31 185.791 23.442V23.439Z" fill="white"/>
<path d="M198.75 28.9272C197.915 28.9272 197.377 28.5198 197.141 27.7049L193.02 13.0907C192.975 12.8339 192.955 12.6715 192.955 12.6066C192.955 12.2405 193.073 11.9629 193.309 11.7681C193.545 11.5762 193.867 11.4788 194.274 11.4788H196.013C196.872 11.4788 197.398 11.8862 197.59 12.701L200.359 22.3907L203.642 12.9904C203.92 12.1962 204.481 11.8006 205.316 11.8006H206.668C207.527 11.8006 208.074 12.1991 208.31 12.9904L211.593 22.3907L214.362 12.701C214.598 11.8862 215.136 11.4788 215.971 11.4788H217.71C218.118 11.4788 218.433 11.5821 218.661 11.7858C218.885 11.9895 218.997 12.2641 218.997 12.6066C218.997 12.6715 218.977 12.8309 218.932 13.0907L214.811 27.7049C214.619 28.5198 214.091 28.9272 213.234 28.9272H211.076C210.241 28.9272 209.692 28.5404 209.435 27.7669L205.989 17.9179L202.544 27.7669C202.287 28.5404 201.738 28.9272 200.902 28.9272H198.744H198.75Z" fill="white"/>
<path d="M25.4168 19.4235C25.2869 19.6036 25.0803 19.7128 24.8559 19.7128C24.8529 19.7128 24.85 19.7128 24.847 19.7128C24.6226 19.7099 24.413 19.5977 24.2861 19.4087L22.4999 16.7605C22.2873 16.4445 22.37 16.0165 22.6859 15.8039C23.0018 15.5913 23.4299 15.674 23.6425 15.9899L24.8736 17.8144L27.4421 14.2185C27.3211 14.183 27.1971 14.1594 27.0642 14.1594H22.866C22.1102 14.1594 21.4961 14.7735 21.4961 15.5293V19.7276C21.4961 20.4834 22.1102 21.0975 22.866 21.0975H27.0642C27.82 21.0975 28.4341 20.4834 28.4341 19.7276V15.5293C28.4341 15.4319 28.4223 15.3345 28.4017 15.2429L25.4168 19.4235Z" fill="white"/>
<path d="M8.67996 14.1594H4.48171C3.72514 14.1594 3.11182 14.7727 3.11182 15.5293V19.7276C3.11182 20.4841 3.72514 21.0975 4.48171 21.0975H8.67996C9.43653 21.0975 10.0499 20.4841 10.0499 19.7276V15.5293C10.0499 14.7727 9.43653 14.1594 8.67996 14.1594Z" fill="white"/>
<path d="M17.9817 14.1594H13.7835C13.0269 14.1594 12.4136 14.7727 12.4136 15.5293V19.7276C12.4136 20.4841 13.0269 21.0975 13.7835 21.0975H17.9817C18.7383 21.0975 19.3516 20.4841 19.3516 19.7276V15.5293C19.3516 14.7727 18.7383 14.1594 17.9817 14.1594Z" fill="white"/>
<path d="M16.3343 28.2926C16.2044 28.4727 15.9977 28.5819 15.7734 28.5819C15.7704 28.5819 15.7675 28.5819 15.7645 28.5819C15.5401 28.579 15.3305 28.4668 15.2036 28.2779L13.4174 25.6296C13.2048 25.3137 13.2875 24.8856 13.6034 24.673C13.9193 24.4605 14.3474 24.5431 14.5599 24.859L15.7911 26.6836L18.3596 23.0876C18.2386 23.0522 18.1146 23.0286 17.9817 23.0286H13.7835C13.0277 23.0286 12.4136 23.6427 12.4136 24.3985V28.5967C12.4136 29.3525 13.0277 29.9666 13.7835 29.9666H17.9817C18.7375 29.9666 19.3516 29.3525 19.3516 28.5967V24.3985C19.3516 24.301 19.3398 24.2036 19.3191 24.1121L16.3343 28.2926Z" fill="white"/>
<path d="M27.0642 23.0283H22.866C22.1094 23.0283 21.4961 23.6416 21.4961 24.3982V28.5965C21.4961 29.353 22.1094 29.9664 22.866 29.9664H27.0642C27.8208 29.9664 28.4341 29.353 28.4341 28.5965V24.3982C28.4341 23.6416 27.8208 23.0283 27.0642 23.0283Z" fill="white"/>
<path d="M8.67996 23.0283H4.48171C3.72514 23.0283 3.11182 23.6416 3.11182 24.3982V28.5965C3.11182 29.353 3.72514 29.9664 4.48171 29.9664H8.67996C9.43653 29.9664 10.0499 29.353 10.0499 28.5965V24.3982C10.0499 23.6416 9.43653 23.0283 8.67996 23.0283Z" fill="white"/>
<path d="M9.26496 7.5108C10.0946 7.5108 10.7677 6.83766 10.7677 6.00805V1.50275C10.7677 0.673138 10.0946 0 9.26496 0C8.43534 0 7.76221 0.673138 7.76221 1.50275V6.011C7.76221 6.84061 8.43534 7.51375 9.26496 7.51375V7.5108Z" fill="white"/>
<path d="M22.284 7.5108C23.1136 7.5108 23.7868 6.83766 23.7868 6.00805V1.50275C23.7868 0.673138 23.1136 0 22.284 0C21.4544 0 20.7812 0.673138 20.7812 1.50275V6.011C20.7812 6.84061 21.4544 7.51375 22.284 7.51375V7.5108Z" fill="white"/>
<path d="M27.7935 2.50366H25.8627V6.00811C25.8627 7.98029 24.2566 9.58637 22.2844 9.58637C20.3122 9.58637 18.7061 7.98029 18.7061 6.00811V2.50366H12.8428V6.00811C12.8428 7.98029 11.2367 9.58637 9.2645 9.58637C7.29232 9.58637 5.68624 7.98029 5.68624 6.00811V2.50366H3.7554C1.6858 2.50366 0 4.18946 0 6.25906V29.7953C0 31.8649 1.6858 33.5507 3.7554 33.5507H27.7905C29.8601 33.5507 31.5459 31.8649 31.5459 29.7953V6.25906C31.5459 4.18946 29.8601 2.50366 27.7905 2.50366H27.7935ZM30.0461 29.7953C30.0461 31.0382 29.0364 32.0479 27.7935 32.0479H3.7554C2.51246 32.0479 1.50275 31.0382 1.50275 29.7953V12.0841H30.0461V29.7953Z" fill="white"/>
</g>
<defs>
<clipPath id="clip0_20_5215">
<rect width="219" height="33.5506" fill="white"/>
</clipPath>
</defs>
</svg>
