<svg width="219" height="34" viewBox="0 0 219 34" fill="none" xmlns="http://www.w3.org/2000/svg">
<g clip-path="url(#clip0_16_3881)">
<path d="M44.1727 17.5227C44.6451 17.7471 45.4068 18.001 46.4578 18.2785C47.7244 18.621 48.7754 18.9693 49.6139 19.3236C50.4494 19.6779 51.1757 20.2241 51.7868 20.9651C52.3979 21.7062 52.705 22.6657 52.705 23.8466C52.705 24.877 52.395 25.8099 51.772 26.6484C51.1491 27.4869 50.2959 28.1394 49.2124 28.6117C48.1288 29.0841 46.9095 29.3203 45.5573 29.3203C44.2908 29.3203 43.0685 29.0782 41.8876 28.597C40.7066 28.1128 39.6762 27.4426 38.7964 26.5835C38.4953 26.3266 38.3447 26.0461 38.3447 25.7479C38.3447 25.4498 38.4835 25.1575 38.764 24.88L39.9242 23.7197C40.1811 23.4628 40.4616 23.3329 40.7598 23.3329C41.0166 23.3329 41.2971 23.4303 41.5953 23.6222C42.109 24.136 42.7113 24.5345 43.3992 24.812C44.0871 25.0925 44.8045 25.2313 45.5573 25.2313C46.3102 25.2313 46.8977 25.0807 47.3937 24.7796C47.8867 24.4784 48.1347 24.0917 48.1347 23.6193C48.1347 23.2119 47.9104 22.9048 47.4587 22.7011C47.0069 22.4974 46.2452 22.2464 45.1735 21.9453C43.907 21.6028 42.8618 21.2574 42.0352 20.9149C41.2085 20.5725 40.4852 20.0292 39.8622 19.2882C39.2393 18.5471 38.9293 17.567 38.9293 16.3417C38.9293 15.3556 39.2245 14.464 39.815 13.6698C40.4055 12.8757 41.2085 12.2527 42.23 11.804C43.2486 11.3522 44.3912 11.1279 45.6577 11.1279C46.7088 11.1279 47.745 11.305 48.7636 11.6593C49.7822 12.0136 50.7003 12.5125 51.5152 13.1561C51.8577 13.3717 52.0289 13.6403 52.0289 13.9621C52.0289 14.2633 51.8783 14.5408 51.5772 14.8006L50.3874 15.9609C50.1069 16.2177 49.8294 16.3476 49.5519 16.3476C49.295 16.3476 49.0145 16.262 48.7134 16.0908C47.8779 15.4472 46.9331 15.1254 45.8821 15.1254C45.1942 15.1254 44.6214 15.2641 44.1609 15.5446C43.7003 15.8251 43.47 16.1675 43.47 16.575C43.47 16.9824 43.7062 17.2983 44.1786 17.5256L44.1727 17.5227Z" fill="#67B32E"/>
<path d="M68.0572 12.486C69.3444 13.2389 70.36 14.2722 71.0981 15.5919C71.8362 16.9116 72.2082 18.3878 72.2082 20.0175V20.2744C72.1875 20.7674 72.0428 21.1424 71.7742 21.4022C71.5055 21.659 71.1158 21.7889 70.5991 21.7889H59.7522C60.074 22.775 60.6792 23.5692 61.5708 24.1715C62.4624 24.7738 63.5076 25.0838 64.7092 25.1044C65.9551 25.1044 67.1331 24.8151 68.2491 24.2364C68.5502 24.1508 68.7421 24.1065 68.8277 24.1065C69.1702 24.1065 69.4507 24.2984 69.6662 24.6852L70.3748 26.0374C70.5253 26.3385 70.5991 26.6278 70.5991 26.9054C70.5991 27.3334 70.4161 27.6582 70.0529 27.8708C69.2588 28.3432 68.3849 28.7033 67.4283 28.9484C66.4717 29.1964 65.4916 29.3174 64.4818 29.3174C62.7222 29.3174 61.1221 28.9248 59.6843 28.1424C58.2465 27.36 57.1187 26.2854 56.3038 24.9243C55.489 23.5633 55.0815 22.034 55.0815 20.3364C55.0815 18.6388 55.4565 17.1124 56.2093 15.7484C56.9592 14.3844 57.9955 13.3127 59.3152 12.5303C60.6349 11.7479 62.1111 11.3553 63.7408 11.3553C65.3705 11.3553 66.767 11.7302 68.0542 12.4831L68.0572 12.486ZM61.249 16.4452C60.5286 17.0238 60.0297 17.7855 59.7522 18.7303H67.8652C67.6291 17.7855 67.1419 17.0238 66.4009 16.4452C65.6598 15.8665 64.7741 15.5772 63.7438 15.5772C62.799 15.5772 61.9664 15.8665 61.249 16.4452Z" fill="#67B32E"/>
<path d="M90.9462 11.6151C91.4185 11.6151 91.7787 11.7391 92.0238 11.9841C92.2688 12.2321 92.3928 12.5894 92.3928 13.0617V27.6434C92.3928 28.0952 92.2688 28.4435 92.0238 28.6886C91.7758 28.9366 91.4156 29.0576 90.9462 29.0576H89.1423C88.6906 29.0576 88.3422 28.9336 88.0971 28.6886C87.8491 28.4435 87.7281 28.0922 87.7281 27.6434V26.5481C87.1258 27.4486 86.37 28.1365 85.4577 28.6089C84.5454 29.0812 83.521 29.3174 82.3843 29.3174C80.8609 29.3174 79.4881 28.9248 78.2628 28.1424C77.0405 27.36 76.0751 26.2854 75.3666 24.9243C74.658 23.5633 74.3037 22.034 74.3037 20.3364C74.3037 18.6388 74.658 17.1124 75.3666 15.7484C76.0751 14.3844 77.0405 13.3127 78.2628 12.5303C79.4851 11.7479 80.8579 11.3553 82.3843 11.3553C83.521 11.3553 84.5454 11.5974 85.4577 12.0786C86.37 12.5628 87.1258 13.2537 87.7281 14.1541V13.0588C87.7281 12.5864 87.8521 12.2262 88.0971 11.9812C88.3422 11.7361 88.6935 11.6121 89.1423 11.6121H90.9462V11.6151ZM86.4379 23.7995C87.297 22.9315 87.7251 21.8421 87.7251 20.5312V20.1445C87.7251 18.8366 87.2941 17.7471 86.4379 16.8762C85.5788 16.0082 84.5159 15.5713 83.2523 15.5713C81.9887 15.5713 80.8904 16.023 80.0342 16.9234C79.1751 17.8239 78.747 18.9635 78.747 20.3364C78.747 21.7092 79.1751 22.8488 80.0342 23.7493C80.8934 24.6498 81.9651 25.1015 83.2523 25.1015C84.5395 25.1015 85.5817 24.6675 86.4379 23.7965V23.7995Z" fill="#67B32E"/>
<path d="M101.149 17.5227C101.622 17.7471 102.383 18.001 103.434 18.2785C104.701 18.621 105.752 18.9693 106.59 19.3236C107.426 19.6779 108.152 20.2241 108.763 20.9651C109.375 21.7062 109.682 22.6657 109.682 23.8466C109.682 24.877 109.372 25.8099 108.749 26.6484C108.126 27.4869 107.272 28.1394 106.189 28.6117C105.105 29.0841 103.886 29.3203 102.534 29.3203C101.267 29.3203 100.045 29.0782 98.8641 28.597C97.6832 28.1128 96.6528 27.4426 95.773 26.5835C95.4719 26.3266 95.3213 26.0461 95.3213 25.7479C95.3213 25.4498 95.4601 25.1575 95.7405 24.88L96.9008 23.7197C97.1577 23.4628 97.4381 23.3329 97.7363 23.3329C97.9932 23.3329 98.2736 23.4303 98.5718 23.6222C99.0855 24.136 99.6878 24.5345 100.376 24.812C101.064 25.0925 101.781 25.2313 102.534 25.2313C103.287 25.2313 103.874 25.0807 104.37 24.7796C104.863 24.4784 105.111 24.0917 105.111 23.6193C105.111 23.2119 104.887 22.9048 104.435 22.7011C103.984 22.4974 103.222 22.2464 102.15 21.9453C100.884 21.6028 99.8384 21.2574 99.0117 20.9149C98.1851 20.5725 97.4618 20.0292 96.8388 19.2882C96.2159 18.5471 95.9059 17.567 95.9059 16.3417C95.9059 15.3556 96.2011 14.464 96.7916 13.6698C97.382 12.8757 98.1851 12.2527 99.2066 11.804C100.225 11.3522 101.368 11.1279 102.634 11.1279C103.685 11.1279 104.722 11.305 105.74 11.6593C106.759 12.0136 107.677 12.5125 108.492 13.1561C108.834 13.3717 109.005 13.6403 109.005 13.9621C109.005 14.2633 108.855 14.5408 108.554 14.8006L107.364 15.9609C107.083 16.2177 106.806 16.3476 106.528 16.3476C106.272 16.3476 105.991 16.262 105.69 16.0908C104.854 15.4472 103.91 15.1254 102.859 15.1254C102.171 15.1254 101.598 15.2641 101.137 15.5446C100.677 15.8251 100.447 16.1675 100.447 16.575C100.447 16.9824 100.683 17.2983 101.155 17.5256L101.149 17.5227Z" fill="#67B32E"/>
<path d="M125.598 12.5333C126.962 13.3157 128.034 14.3903 128.816 15.7514C129.599 17.1154 129.991 18.6447 129.991 20.3394C129.991 22.034 129.599 23.5633 128.816 24.9273C128.034 26.2913 126.959 27.363 125.598 28.1454C124.234 28.9278 122.717 29.3204 121.043 29.3204C119.369 29.3204 117.845 28.9278 116.472 28.1454C115.1 27.363 114.019 26.2884 113.237 24.9273C112.454 23.5663 112.062 22.037 112.062 20.3394C112.062 18.6417 112.454 17.1154 113.237 15.7514C114.019 14.3874 115.1 13.3157 116.472 12.5333C117.845 11.7509 119.369 11.3583 121.043 11.3583C122.717 11.3583 124.234 11.7509 125.598 12.5333ZM124.116 23.5751C124.943 22.7071 125.356 21.6266 125.356 20.3394C125.356 19.0521 124.943 17.9745 124.116 17.1036C123.289 16.2356 122.265 15.7986 121.043 15.7986C119.82 15.7986 118.766 16.2326 117.951 17.1036C117.137 17.9716 116.729 19.0521 116.729 20.3394C116.729 21.6266 117.137 22.7367 117.951 23.6076C118.766 24.4756 119.797 24.9126 121.043 24.9126C122.265 24.8919 123.289 24.4461 124.116 23.5781V23.5751Z" fill="#67B32E"/>
<path d="M147.296 13.2893C148.509 14.5765 149.114 16.3273 149.114 18.5356V27.6466C149.114 28.0983 148.99 28.4467 148.745 28.6918C148.497 28.9397 148.149 29.0608 147.7 29.0608H145.896C145.424 29.0608 145.064 28.9368 144.819 28.6918C144.571 28.4467 144.45 28.0954 144.45 27.6466V19.0848C144.45 18.0337 144.14 17.1923 143.517 16.5576C142.894 15.9258 142.067 15.598 141.037 15.5744C140.071 15.5744 139.259 15.911 138.607 16.5871C137.951 17.2632 137.624 18.0957 137.624 19.0818V27.6437C137.624 28.0954 137.5 28.4438 137.255 28.6888C137.01 28.9338 136.649 29.0578 136.177 29.0578H134.373C133.921 29.0578 133.573 28.9338 133.328 28.6888C133.08 28.4438 132.959 28.0924 132.959 27.6437V13.062C132.959 12.5896 133.083 12.2294 133.328 11.9844C133.576 11.7393 133.924 11.6153 134.373 11.6153H136.177C136.649 11.6153 137.01 11.7393 137.255 11.9844C137.5 12.2324 137.624 12.5896 137.624 13.062V13.4487C138.247 12.7844 138.961 12.2678 139.764 11.9046C140.57 11.5386 141.444 11.3585 142.389 11.3585C144.45 11.3585 146.085 12.0021 147.299 13.2893H147.296Z" fill="#67B32E"/>
<path d="M164.113 5.72521C164.113 5.85511 164.081 6.01454 164.016 6.20939L163.502 7.721C163.287 8.34395 162.956 8.58899 162.504 8.46204C162.162 8.33214 161.763 8.27014 161.314 8.27014C160.606 8.27014 160.054 8.49452 159.655 8.94623C159.257 9.39794 159.059 10.0297 159.059 10.8446V11.6181H161.763C162.215 11.6181 162.563 11.7421 162.808 11.9872C163.056 12.2352 163.177 12.5924 163.177 13.0648V13.5165C163.177 13.9889 163.053 14.349 162.808 14.5941C162.56 14.8421 162.212 14.9631 161.763 14.9631H159.059V27.6465C159.059 28.0982 158.935 28.4465 158.69 28.6916C158.442 28.9396 158.082 29.0606 157.612 29.0606H155.808C155.357 29.0606 155.008 28.9366 154.763 28.6916C154.515 28.4465 154.394 28.0952 154.394 27.6465V14.9631H153.009C152.558 14.9631 152.209 14.8391 151.964 14.5941C151.716 14.349 151.595 13.9889 151.595 13.5165V13.0648C151.595 12.5924 151.719 12.2322 151.964 11.9872C152.209 11.7421 152.561 11.6181 153.009 11.6181H154.394V10.4903C154.394 8.68642 154.973 7.23977 156.133 6.14444C157.293 5.04912 158.891 4.50293 160.931 4.50293C161.766 4.50293 162.572 4.62102 163.346 4.85721C163.859 4.98712 164.119 5.27645 164.119 5.72521H164.113Z" fill="#706F6F"/>
<path d="M167.525 29.0636C167.073 29.0636 166.724 28.9396 166.479 28.6946C166.231 28.4495 166.11 28.0982 166.11 27.6494V6.85303C166.11 6.38065 166.234 6.02046 166.479 5.77542C166.727 5.53037 167.076 5.40637 167.525 5.40637H169.328C169.801 5.40637 170.161 5.53037 170.406 5.77542C170.651 6.02341 170.775 6.38065 170.775 6.85303V27.6494C170.775 28.1011 170.651 28.4495 170.406 28.6946C170.161 28.9396 169.801 29.0636 169.328 29.0636H167.525Z" fill="#706F6F"/>
<path d="M187.273 12.5335C188.637 13.3159 189.709 14.3905 190.491 15.7516C191.274 17.1156 191.667 18.6449 191.667 20.3395C191.667 22.0342 191.274 23.5635 190.491 24.9275C189.709 26.2915 188.634 27.3632 187.273 28.1456C185.909 28.9279 184.392 29.3206 182.718 29.3206C181.044 29.3206 179.52 28.9279 178.148 28.1456C176.775 27.3632 175.694 26.2885 174.912 24.9275C174.129 23.5665 173.737 22.0371 173.737 20.3395C173.737 18.6419 174.129 17.1156 174.912 15.7516C175.694 14.3876 176.775 13.3159 178.148 12.5335C179.52 11.7511 181.044 11.3585 182.718 11.3585C184.392 11.3585 185.909 11.7511 187.273 12.5335ZM185.791 23.5753C186.618 22.7073 187.031 21.6268 187.031 20.3395C187.031 19.0523 186.618 17.9747 185.791 17.1037C184.965 16.2358 183.94 15.7988 182.718 15.7988C181.496 15.7988 180.442 16.2328 179.627 17.1037C178.812 17.9717 178.405 19.0523 178.405 20.3395C178.405 21.6268 178.812 22.7368 179.627 23.6078C180.442 24.4758 181.472 24.9127 182.718 24.9127C183.94 24.8921 184.965 24.4463 185.791 23.5783V23.5753Z" fill="#706F6F"/>
<path d="M198.75 29.0635C197.915 29.0635 197.377 28.6561 197.141 27.8413L193.02 13.2271C192.975 12.9702 192.955 12.8079 192.955 12.7429C192.955 12.3768 193.073 12.0993 193.309 11.9044C193.545 11.7125 193.867 11.6151 194.274 11.6151H196.013C196.872 11.6151 197.398 12.0225 197.59 12.8374L200.359 22.527L203.642 13.1267C203.92 12.3325 204.481 11.9369 205.316 11.9369H206.668C207.527 11.9369 208.074 12.3355 208.31 13.1267L211.593 22.527L214.362 12.8374C214.598 12.0225 215.136 11.6151 215.971 11.6151H217.71C218.118 11.6151 218.433 11.7184 218.661 11.9222C218.885 12.1259 218.997 12.4004 218.997 12.7429C218.997 12.8079 218.977 12.9673 218.932 13.2271L214.811 27.8413C214.619 28.6561 214.091 29.0635 213.234 29.0635H211.076C210.241 29.0635 209.692 28.6768 209.435 27.9033L205.989 18.0542L202.544 27.9033C202.287 28.6768 201.738 29.0635 200.902 29.0635H198.744H198.75Z" fill="#706F6F"/>
<path d="M25.4168 19.5598C25.2869 19.7399 25.0803 19.8492 24.8559 19.8492C24.8529 19.8492 24.85 19.8492 24.847 19.8492C24.6226 19.8462 24.413 19.734 24.2861 19.5451L22.4999 16.8968C22.2873 16.5809 22.37 16.1528 22.6859 15.9402C23.0018 15.7277 23.4299 15.8103 23.6425 16.1262L24.8736 17.9508L27.4421 14.3548C27.3211 14.3194 27.1971 14.2958 27.0642 14.2958H22.866C22.1102 14.2958 21.4961 14.9099 21.4961 15.6657V19.8639C21.4961 20.6197 22.1102 21.2338 22.866 21.2338H27.0642C27.82 21.2338 28.4341 20.6197 28.4341 19.8639V15.6657C28.4341 15.5682 28.4223 15.4708 28.4017 15.3793L25.4168 19.5598Z" fill="#67B32E"/>
<path d="M8.67996 14.2958H4.48171C3.72514 14.2958 3.11182 14.9091 3.11182 15.6657V19.8639C3.11182 20.6205 3.72514 21.2338 4.48171 21.2338H8.67996C9.43653 21.2338 10.0499 20.6205 10.0499 19.8639V15.6657C10.0499 14.9091 9.43653 14.2958 8.67996 14.2958Z" fill="#706F6F"/>
<path d="M17.9817 14.2958H13.7835C13.0269 14.2958 12.4136 14.9091 12.4136 15.6657V19.8639C12.4136 20.6205 13.0269 21.2338 13.7835 21.2338H17.9817C18.7383 21.2338 19.3516 20.6205 19.3516 19.8639V15.6657C19.3516 14.9091 18.7383 14.2958 17.9817 14.2958Z" fill="#706F6F"/>
<path d="M16.3343 28.4289C16.2044 28.609 15.9977 28.7182 15.7734 28.7182C15.7704 28.7182 15.7675 28.7182 15.7645 28.7182C15.5401 28.7153 15.3305 28.6031 15.2036 28.4141L13.4174 25.7659C13.2048 25.45 13.2875 25.0219 13.6034 24.8093C13.9193 24.5967 14.3474 24.6794 14.5599 24.9953L15.7911 26.8199L18.3596 23.2239C18.2386 23.1885 18.1146 23.1649 17.9817 23.1649H13.7835C13.0277 23.1649 12.4136 23.7789 12.4136 24.5347V28.733C12.4136 29.4888 13.0277 30.1029 13.7835 30.1029H17.9817C18.7375 30.1029 19.3516 29.4888 19.3516 28.733V24.5347C19.3516 24.4373 19.3398 24.3399 19.3191 24.2484L16.3343 28.4289Z" fill="#67B32E"/>
<path d="M27.0642 23.1647H22.866C22.1094 23.1647 21.4961 23.778 21.4961 24.5346V28.7328C21.4961 29.4894 22.1094 30.1027 22.866 30.1027H27.0642C27.8208 30.1027 28.4341 29.4894 28.4341 28.7328V24.5346C28.4341 23.778 27.8208 23.1647 27.0642 23.1647Z" fill="#706F6F"/>
<path d="M8.67996 23.1647H4.48171C3.72514 23.1647 3.11182 23.778 3.11182 24.5346V28.7328C3.11182 29.4894 3.72514 30.1027 4.48171 30.1027H8.67996C9.43653 30.1027 10.0499 29.4894 10.0499 28.7328V24.5346C10.0499 23.778 9.43653 23.1647 8.67996 23.1647Z" fill="#706F6F"/>
<path d="M9.26496 7.64709C10.0946 7.64709 10.7677 6.97395 10.7677 6.14434V1.63904C10.7677 0.809429 10.0946 0.136292 9.26496 0.136292C8.43534 0.136292 7.76221 0.809429 7.76221 1.63904V6.14729C7.76221 6.9769 8.43534 7.65004 9.26496 7.65004V7.64709Z" fill="#706F6F"/>
<path d="M22.284 7.64709C23.1136 7.64709 23.7868 6.97395 23.7868 6.14434V1.63904C23.7868 0.809429 23.1136 0.136292 22.284 0.136292C21.4544 0.136292 20.7812 0.809429 20.7812 1.63904V6.14729C20.7812 6.9769 21.4544 7.65004 22.284 7.65004V7.64709Z" fill="#706F6F"/>
<path d="M27.7935 2.63995H25.8627V6.1444C25.8627 8.11658 24.2566 9.72266 22.2844 9.72266C20.3122 9.72266 18.7061 8.11658 18.7061 6.1444V2.63995H12.8428V6.1444C12.8428 8.11658 11.2367 9.72266 9.2645 9.72266C7.29232 9.72266 5.68624 8.11658 5.68624 6.1444V2.63995H3.7554C1.6858 2.63995 0 4.32575 0 6.39535V29.9316C0 32.0012 1.6858 33.687 3.7554 33.687H27.7905C29.8601 33.687 31.5459 32.0012 31.5459 29.9316V6.39535C31.5459 4.32575 29.8601 2.63995 27.7905 2.63995H27.7935ZM30.0461 29.9316C30.0461 31.1745 29.0364 32.1842 27.7935 32.1842H3.7554C2.51246 32.1842 1.50275 31.1745 1.50275 29.9316V12.2204H30.0461V29.9316Z" fill="#706F6F"/>
</g>
<defs>
<clipPath id="clip0_16_3881">
<rect width="219" height="33.5506" fill="white" transform="translate(0 0.136292)"/>
</clipPath>
</defs>
</svg>
