<svg width="50" height="51" viewBox="0 0 50 51" fill="none" xmlns="http://www.w3.org/2000/svg">
<g clip-path="url(#clip0_115_804)">
<mask id="mask0_115_804" style="mask-type:luminance" maskUnits="userSpaceOnUse" x="0" y="0" width="50" height="51">
<path d="M50 0H0V51H50V0Z" fill="white"/>
</mask>
<g mask="url(#mask0_115_804)">
<path d="M41.9705 2.16552L1.66538 42.4706C-0.0919805 44.228 -0.0919805 47.0772 1.66538 48.8346C3.42274 50.5919 6.27198 50.5919 8.02934 48.8346L48.3344 8.52948C50.0918 6.77212 50.0918 3.92288 48.3344 2.16552C46.5771 0.408162 43.7278 0.408161 41.9705 2.16552Z" fill="#67B32E"/>
<path d="M48.3347 42.4706L8.02964 2.1655C6.27228 0.408142 3.42304 0.408142 1.66568 2.1655C-0.0916836 3.92286 -0.0916836 6.7721 1.66568 8.52946L41.9708 48.8345C43.7281 50.5919 46.5774 50.5919 48.3347 48.8345C50.0921 47.0772 50.0921 44.2279 48.3347 42.4706Z" fill="#67B32E"/>
</g>
</g>
<defs>
<clipPath id="clip0_115_804">
<rect width="50" height="51" fill="white"/>
</clipPath>
</defs>
</svg>
